<svg version="1.0" xmlns="http://www.w3.org/2000/svg"
 width="63px" height="62px" viewBox="0 0 6320 6190"
 preserveAspectRatio="xMidYMid meet">
<g transform="translate(0,6190) scale(1,-1)"
fill="#3d3d3d" stroke="none">
<path d="M0 3095 l0 -3095 71 0 c85 0 104 14 104 74 0 36 4 43 37 65 21 13 38
30 38 38 0 7 9 13 19 13 25 0 52 26 45 44 -3 7 2 19 11 26 20 16 19 30 -5 60
-11 14 -20 33 -20 42 0 23 36 32 71 17 26 -10 34 -9 57 8 45 34 40 57 -15 74
-37 11 -49 19 -51 37 -5 32 23 60 67 67 70 12 81 21 81 66 0 50 21 85 93 157
l54 53 79 -14 c43 -8 96 -12 116 -10 34 5 38 2 63 -35 15 -22 39 -45 55 -52
29 -12 43 -47 29 -73 -6 -10 0 -27 17 -52 14 -21 24 -45 22 -54 -5 -26 -47
-25 -77 2 -53 50 -98 59 -151 32 -17 -9 -30 -17 -30 -20 0 -14 58 -54 87 -60
24 -4 42 -18 63 -47 17 -23 30 -46 30 -53 0 -13 100 -85 118 -85 6 0 27 9 46
21 35 21 46 42 26 54 -15 9 -12 34 5 52 23 22 73 0 82 -36 10 -44 21 -50 82
-47 32 2 62 5 67 8 16 9 84 19 84 12 0 -4 -5 -24 -11 -44 -14 -45 -6 -43 -254
-65 -78 -7 -101 -13 -170 -49 -44 -23 -105 -51 -135 -61 -30 -11 -71 -30 -90
-42 -19 -13 -40 -23 -46 -23 -7 0 -27 -17 -45 -37 -18 -21 -44 -43 -58 -50
-21 -9 2 -12 126 -12 l152 -1 -5 29 c-6 28 -5 29 42 34 69 6 217 26 293 38 35
5 93 23 128 40 35 16 68 27 74 23 14 -8 85 23 131 58 20 16 47 28 60 27 57 -6
116 29 76 44 -19 7 4 41 30 45 24 4 72 56 72 77 0 20 22 65 32 65 26 0 88 37
88 52 0 10 9 23 21 30 11 7 27 28 36 46 15 32 15 34 -14 70 -36 44 -51 48
-109 32 -31 -9 -48 -21 -57 -38 -6 -15 -28 -34 -47 -43 -19 -9 -58 -28 -87
-42 -28 -14 -54 -23 -57 -20 -3 3 -21 7 -40 9 -20 2 -45 8 -58 15 -21 11 -21
12 -2 26 11 8 30 12 47 9 43 -9 71 8 100 62 15 27 27 55 27 61 0 18 -70 13
-114 -8 -23 -11 -58 -26 -78 -34 -35 -15 -37 -17 -34 -60 2 -38 -1 -47 -18
-55 -43 -21 -82 -21 -114 -2 -58 35 -31 90 43 90 35 0 32 29 -6 68 -22 22 -29
37 -24 52 4 13 -1 31 -14 49 -12 16 -21 41 -21 54 0 14 -4 29 -10 32 -5 3 -10
14 -10 24 0 15 -11 20 -46 26 -26 4 -55 11 -64 17 -13 8 -25 7 -47 -4 -42 -21
-64 -7 -61 37 1 18 -4 40 -11 49 -17 20 -55 21 -71 1 -7 -8 -36 -22 -64 -30
-66 -20 -100 -49 -125 -107 -21 -49 -59 -78 -103 -78 -39 0 -49 13 -39 46 5
16 13 42 18 58 4 17 21 36 38 46 22 12 31 25 33 47 2 17 12 39 23 49 26 23 25
70 -2 84 -26 14 -44 0 -64 -47 -17 -40 -92 -112 -117 -113 -22 0 -24 37 -3 64
8 11 15 27 15 37 0 9 11 32 23 51 24 34 26 58 12 138 -4 19 -10 44 -15 55 -34
82 -32 103 20 206 40 80 51 192 26 289 -9 36 -16 88 -16 115 1 79 -5 149 -13
162 -6 10 -17 201 -18 338 -1 29 10 75 26 110 8 17 21 73 31 125 9 52 23 112
30 133 8 20 14 50 14 65 0 15 9 56 20 90 11 35 20 78 20 95 0 28 34 109 58
141 9 10 46 76 78 136 8 14 14 34 14 45 0 29 80 106 142 136 59 29 132 49 178
49 48 0 177 -38 218 -64 50 -32 286 -267 319 -319 15 -23 48 -67 74 -97 25
-30 63 -84 84 -120 21 -36 46 -72 54 -80 44 -42 101 -115 101 -129 0 -25 97
-149 123 -156 12 -3 32 -11 45 -17 17 -9 28 -8 47 2 22 12 30 12 53 -2 19 -11
42 -14 82 -11 64 6 93 26 84 57 -6 19 -60 103 -75 116 -3 3 -18 23 -34 45 -39
53 -144 175 -216 252 -33 35 -59 65 -59 68 0 23 60 -26 206 -170 102 -101 220
-243 240 -289 7 -17 29 -47 48 -65 l36 -35 0 40 c0 22 -6 60 -14 85 -18 57
-27 119 -17 119 14 0 28 -22 56 -90 45 -110 55 -130 69 -130 8 0 16 9 19 20 8
32 35 23 57 -20 24 -47 24 -47 107 -53 51 -4 65 -2 82 14 11 11 33 19 48 19
16 0 69 4 118 10 92 10 104 11 190 7 56 -3 105 -21 105 -38 0 -17 40 -49 61
-49 10 0 24 12 31 28 13 26 16 27 96 26 61 -1 87 -5 100 -18 23 -20 51 -21 79
-1 17 12 27 12 53 4 23 -9 34 -9 43 0 17 17 42 13 63 -10 14 -16 26 -19 50
-14 38 7 81 -11 89 -37 6 -18 30 -25 38 -10 3 4 1 30 -2 58 -6 45 -5 51 9 47
21 -6 50 -64 50 -101 l1 -27 19 24 c11 13 20 33 20 45 0 11 5 28 10 36 9 13
11 13 20 0 5 -8 10 -25 10 -37 0 -13 12 -32 30 -45 16 -12 30 -28 30 -35 0 -7
9 -13 20 -13 11 0 20 7 20 15 0 17 30 35 59 35 14 0 21 -6 21 -19 0 -30 17
-34 48 -11 l28 21 41 -22 41 -21 36 24 c19 14 59 56 87 94 76 102 394 409 460
444 12 7 51 23 88 36 140 51 201 22 244 -114 14 -42 28 -95 31 -117 29 -175
33 -226 31 -370 -1 -88 -8 -236 -15 -330 -6 -93 -14 -273 -17 -399 -6 -305
-10 -293 191 -585 43 -63 176 -331 176 -355 0 -9 -11 -23 -25 -32 -24 -16 -29
-15 -88 6 -69 25 -86 39 -107 90 -16 40 -27 50 -47 43 -16 -6 -16 -97 0 -124
19 -31 1 -46 -59 -52 -31 -3 -62 -11 -67 -16 -6 -6 -21 -11 -34 -11 -16 0 -23
-6 -23 -19 0 -11 -3 -26 -6 -35 -3 -9 4 -25 20 -39 14 -13 26 -29 26 -36 0
-16 8 -14 32 9 18 17 20 22 9 33 -11 9 -14 9 -18 0 -7 -20 -31 -15 -38 7 -9
27 2 58 23 63 27 5 72 -31 72 -58 0 -13 5 -27 10 -30 15 -10 12 -37 -9 -64
-18 -23 -19 -23 -37 -5 -19 19 -19 19 -41 -7 -13 -15 -23 -36 -23 -47 0 -11
-6 -25 -14 -31 -8 -6 -16 -26 -19 -44 -3 -18 -11 -57 -19 -88 -13 -51 -13 -59
2 -79 10 -14 31 -23 58 -27 24 -3 45 -10 48 -14 8 -13 57 -10 77 5 23 18 22
31 -10 72 -19 26 -26 47 -26 79 0 55 16 76 57 73 17 -1 43 6 57 15 14 10 33
15 41 12 8 -3 21 1 28 10 7 8 18 15 25 15 6 0 19 8 29 18 9 11 35 25 59 31 61
19 72 26 75 50 6 42 22 9 22 -46 0 -65 8 -94 59 -220 12 -28 21 -64 21 -80 0
-15 12 -70 27 -120 l28 -93 63 0 62 0 0 3095 0 3095 -3160 0 -3160 0 0 -3095z
m4249 -434 c11 -19 5 -31 -13 -31 -16 1 -48 48 -41 60 8 13 41 -4 54 -29z
m-3064 -1753 c18 -8 25 -18 23 -32 -4 -31 -33 -31 -46 -1 -21 46 -17 52 23 33z
m4663 -246 c6 -18 -17 -42 -39 -42 -12 0 -19 -7 -19 -20 0 -15 -7 -20 -28 -20
-16 0 -37 6 -47 14 -27 19 -10 68 25 76 41 10 103 5 108 -8z m-4602 -148 c-25
-18 -36 -18 -36 1 0 19 32 37 45 24 7 -7 4 -15 -9 -25z m74 22 c0 -7 -9 -16
-20 -19 -15 -4 -20 0 -20 14 0 12 7 19 20 19 11 0 20 -6 20 -14z m4346 -70
c24 -18 14 -29 -19 -21 -17 5 -24 12 -20 21 7 18 14 18 39 0z"/>
<path d="M2701 2426 c-12 -12 -21 -29 -21 -38 0 -25 59 -98 78 -98 29 0 62 43
67 86 6 53 -4 66 -58 69 -36 3 -49 -1 -66 -19z"/>
<path d="M4370 2291 c0 -26 34 -66 48 -57 16 9 15 49 0 64 -19 19 -48 15 -48
-7z"/>
<path d="M2184 2183 c-12 -2 -27 -16 -35 -30 -29 -54 -62 -83 -96 -83 -24 0
-36 -7 -48 -28 -10 -16 -36 -40 -59 -55 -22 -14 -62 -45 -87 -69 -25 -24 -60
-54 -78 -68 -18 -14 -71 -72 -117 -130 l-84 -105 0 -80 c0 -62 4 -87 20 -112
30 -50 40 -41 40 35 0 131 54 241 170 345 28 25 63 52 78 60 86 46 112 57 163
71 72 20 138 20 189 0 27 -11 55 -15 84 -11 56 8 86 -1 86 -24 0 -11 5 -19 10
-19 6 0 10 -8 10 -18 0 -10 5 -23 12 -30 19 -19 -13 -15 -40 4 -39 27 -88 11
-112 -36 -16 -31 -29 -41 -70 -55 -56 -19 -97 -14 -146 16 -17 10 -38 19 -45
19 -13 0 -64 -49 -98 -92 -20 -26 -40 -138 -30 -171 4 -15 6 -34 3 -41 -11
-28 51 -140 99 -179 26 -21 47 -47 47 -57 0 -11 11 -22 28 -28 33 -11 210 -4
218 9 3 5 -2 16 -11 25 -15 15 -15 18 4 38 31 34 36 86 11 119 -26 32 -19 66
13 68 12 1 49 1 83 0 l61 -3 18 49 c12 32 19 76 20 130 0 45 4 85 7 89 14 14
59 -8 90 -43 18 -20 42 -47 53 -58 168 -178 183 -211 124 -266 l-31 -28 23
-41 c20 -35 21 -43 9 -65 -7 -14 -17 -25 -22 -25 -5 0 -24 -16 -42 -35 -32
-33 -52 -92 -60 -173 -2 -19 -9 -39 -15 -45 -16 -16 -14 -25 9 -37 15 -8 26
-7 42 3 13 8 42 20 66 27 24 8 48 22 53 32 5 10 16 18 24 18 7 0 28 25 45 55
17 30 35 57 40 60 5 3 7 11 4 18 -2 7 9 26 26 42 21 20 30 38 30 61 0 26 7 36
35 54 37 23 44 41 23 58 -28 22 -61 24 -99 7 -36 -17 -40 -17 -64 -1 -22 14
-25 23 -25 74 0 32 5 85 11 117 12 63 -2 231 -24 290 -22 60 -80 147 -130 198
-57 57 -175 127 -214 127 -13 0 -32 4 -42 10 -19 9 -220 20 -257 13z m-174
-659 c0 -9 -5 -14 -12 -12 -18 6 -21 28 -4 28 9 0 16 -7 16 -16z"/>
<path d="M4723 1999 c-10 -4 -41 -8 -68 -8 -28 -1 -55 -5 -60 -9 -6 -5 -29
-16 -52 -25 -92 -36 -182 -151 -204 -262 -4 -22 -13 -61 -19 -86 -6 -26 -10
-71 -8 -100 3 -53 4 -54 33 -54 25 0 32 5 40 32 6 17 18 40 27 50 10 11 15 27
12 39 -3 12 2 27 15 38 12 11 21 29 21 41 0 47 139 136 234 150 69 10 240 -12
306 -40 71 -30 70 -30 70 -5 0 11 -4 20 -10 20 -5 0 -10 10 -10 23 0 14 -16
39 -40 62 -22 21 -40 44 -40 50 0 5 -19 30 -42 53 l-41 43 -73 -2 c-40 -2 -81
-6 -91 -10z"/>
<path d="M4779 1663 c-21 -53 -26 -58 -82 -86 -36 -18 -57 -35 -57 -45 0 -19
41 -123 74 -189 24 -49 37 -53 60 -18 15 22 23 25 82 25 58 0 69 -3 93 -28 18
-17 30 -43 35 -72 6 -41 4 -46 -24 -73 -16 -15 -30 -36 -30 -46 0 -30 41 -56
93 -59 49 -2 55 5 35 37 -10 16 -5 26 26 65 36 43 39 51 43 128 5 79 3 86 -30
155 -52 108 -115 172 -212 213 -66 28 -93 26 -106 -7z"/>
<path d="M3228 1416 c-15 -6 -37 -21 -50 -32 -13 -12 -44 -34 -70 -49 -46 -25
-48 -29 -48 -70 0 -35 -5 -46 -25 -59 -16 -11 -23 -22 -18 -29 4 -7 6 -20 5
-29 -5 -27 24 -22 45 8 19 25 21 26 64 13 24 -7 50 -17 57 -22 31 -24 -4 -84
-68 -117 -43 -22 -52 -38 -43 -81 4 -21 14 -33 32 -40 14 -5 37 -15 51 -23 14
-8 45 -17 70 -21 25 -4 67 -18 94 -31 28 -13 57 -24 66 -24 31 0 79 -31 120
-77 31 -36 40 -54 40 -83 0 -62 49 -151 105 -195 19 -14 47 -51 62 -83 36 -74
38 -176 4 -246 -11 -25 -21 -58 -21 -72 0 -15 -8 -33 -17 -40 -15 -11 1 -13
110 -14 127 0 127 0 123 23 -18 83 -24 157 -17 187 16 67 62 143 151 250 49
58 126 172 154 227 22 43 59 61 152 74 42 6 88 18 101 26 23 15 24 20 18 72
-10 84 -37 106 -94 77 -26 -14 -33 -12 -116 29 -101 50 -115 49 -159 -12 -23
-33 -30 -58 -38 -129 -6 -49 -10 -106 -10 -126 -1 -33 -4 -38 -24 -38 -15 0
-24 -6 -24 -15 0 -24 -29 -29 -50 -10 -10 9 -19 29 -19 44 0 56 -10 94 -30
115 -12 12 -21 28 -21 34 0 19 -16 14 -47 -12 -22 -20 -26 -27 -15 -37 13 -14
17 -33 4 -25 -4 2 -18 -2 -32 -9 -22 -12 -23 -14 -7 -20 24 -10 22 -17 -23
-74 l-41 -51 -29 15 c-35 18 -38 30 -10 45 25 13 26 40 2 40 -10 0 -28 -7 -40
-16 -12 -8 -27 -12 -33 -8 -18 11 -2 111 23 144 11 16 25 53 29 82 8 45 6 59
-12 93 -34 67 -62 94 -119 115 -77 28 -99 25 -163 -20 -63 -45 -100 -51 -118
-19 -8 17 -8 31 0 60 7 22 16 39 20 39 5 0 19 21 31 48 12 26 39 68 60 93 46
55 46 92 -3 108 -39 14 -105 13 -139 -3z"/>
<path d="M5329 1333 c-1 -4 0 -35 1 -69 1 -53 -2 -65 -27 -95 -15 -19 -32 -37
-37 -40 -5 -4 -6 -14 -3 -24 6 -15 11 -14 47 6 22 12 43 32 46 43 4 12 13 29
21 38 13 14 13 25 1 80 -10 44 -19 64 -31 66 -9 2 -18 0 -18 -5z"/>
<path d="M4300 1305 c0 -13 21 -57 48 -96 26 -39 54 -82 62 -95 25 -39 134
-132 160 -136 39 -5 36 27 -7 78 -21 25 -56 69 -78 99 -99 132 -118 156 -135
165 -32 17 -50 12 -50 -15z"/>
<path d="M1300 1060 c0 -5 7 -10 16 -10 8 0 12 5 9 10 -3 6 -10 10 -16 10 -5
0 -9 -4 -9 -10z"/>
<path d="M4620 926 c0 -15 50 -60 57 -52 3 2 -1 15 -8 28 -19 36 -49 51 -49
24z"/>
<path d="M1826 825 c-9 -25 -8 -27 22 -23 16 2 27 9 27 18 0 21 -41 25 -49 5z"/>
<path d="M1430 810 c0 -5 5 -10 10 -10 6 0 10 5 10 10 0 6 -4 10 -10 10 -5 0
-10 -4 -10 -10z"/>
<path d="M1525 801 c-3 -6 4 -19 16 -30 17 -16 25 -17 40 -8 17 10 17 13 2 29
-17 19 -48 24 -58 9z"/>
<path d="M3990 685 c0 -17 2 -18 24 -9 23 9 20 24 -4 24 -11 0 -20 -7 -20 -15z"/>
<path d="M3740 681 c0 -6 5 -13 10 -16 6 -3 10 1 10 9 0 9 -4 16 -10 16 -5 0
-10 -4 -10 -9z"/>
<path d="M3710 650 c0 -5 7 -10 15 -10 8 0 15 5 15 10 0 6 -7 10 -15 10 -8 0
-15 -4 -15 -10z"/>
<path d="M5392 634 c2 -11 11 -20 22 -22 13 -3 17 1 14 14 -2 11 -11 20 -22
22 -13 3 -17 -1 -14 -14z"/>
<path d="M2225 532 c-22 -21 -48 -41 -58 -45 -32 -12 -16 -42 25 -45 29 -2 43
3 72 29 48 42 61 66 45 85 -19 23 -42 16 -84 -24z"/>
<path d="M4925 488 c4 -13 9 -38 12 -56 3 -19 16 -40 32 -52 14 -11 31 -24 38
-30 21 -18 43 -11 43 13 0 23 -15 49 -65 110 -34 42 -72 51 -60 15z"/>
<path d="M2027 362 c-9 -10 -20 -33 -23 -52 l-7 -33 39 6 c43 7 87 48 82 76
-5 24 -69 27 -91 3z"/>
<path d="M5077 243 c-14 -13 -6 -33 12 -33 30 0 51 11 51 26 0 14 -51 20 -63
7z"/>
<path d="M5440 46 c0 -23 40 -36 110 -36 82 0 94 25 18 36 -122 17 -128 17
-128 0z"/>
</g>
</svg>
